<?xml version="1.0" encoding="utf-8"?><svg viewBox="0 0 37 27" xmlns="http://www.w3.org/2000/svg" xmlns:xlink="http://www.w3.org/1999/xlink"><style>:root>svg{display:none}:root>svg:target{display:block}</style><svg fill="none" viewBox="0 0 14 25" id="facebook" xmlns="http://www.w3.org/2000/svg"><path d="M13.05 14.062l.736-4.523H9.247V6.6c0-1.236.634-2.444 2.66-2.444H14V.304A26.236 26.236 0 0010.316 0C6.58 0 4.14 2.17 4.14 6.091v3.448H0v4.523h4.141V25h5.106V14.062h3.803z" fill="#fff"/></svg><svg fill="none" viewBox="0 0 7 12" id="follow" xmlns="http://www.w3.org/2000/svg"><path d="M5.176.552c.04-.008.12-.012.24-.012.184.008.352.052.504.132.312.16.468.416.468.768a.9.9 0 01-.096.408.527.527 0 01-.144.204.723.723 0 01-.84.168c-.2-.104-.272-.288-.216-.552l.024-.096a.692.692 0 01.3-.408c.04-.024.012-.044-.084-.06-.056 0-.096.008-.12.024a.375.375 0 00-.132.168c-.032.064-.116.432-.252 1.104-.184.88-.276 1.352-.276 1.416 0 .008.216.012.648.012h.648l.048.036c.032.04.028.148-.012.324-.04.176-.076.272-.108.288-.024.016-.256.024-.696.024-.44 0-.66.008-.66.024l-.312 1.584-.36 1.86c-.216 1.04-.424 1.784-.624 2.232-.256.592-.584.98-.984 1.164a.926.926 0 01-.36.096c-.352.016-.632-.092-.84-.324a.078.078 0 01-.036-.036.9.9 0 01-.168-.528c0-.152.032-.292.096-.42a.527.527 0 01.144-.204.723.723 0 01.84-.168c.2.104.272.288.216.552l-.024.096a.692.692 0 01-.3.408c-.048.032-.02.048.084.048.064 0 .112-.012.144-.036.104-.08.184-.288.24-.624.08-.504.2-1.072.36-1.704l.24-1.08c.376-2.008.564-2.984.564-2.928 0-.008-.184-.012-.552-.012-.392 0-.604-.028-.636-.084-.016-.024-.004-.116.036-.276.04-.16.072-.252.096-.276l.036-.036h1.152v-.024l.12-.588c.16-.832.316-1.412.468-1.74.248-.504.62-.812 1.116-.924z" fill="#fff"/><path d="M1 10.5h3.684v.6H1v-.6z" fill="#fff"/></svg><svg fill="none" viewBox="0 0 25 25" id="instagram" xmlns="http://www.w3.org/2000/svg"><path d="M8.334 12.5a4.167 4.167 0 118.333 0 4.167 4.167 0 01-8.333 0zm-2.252 0a6.419 6.419 0 1012.837 0 6.419 6.419 0 00-12.837 0zm11.591-6.673a1.5 1.5 0 101.501-1.5 1.5 1.5 0 00-1.5 1.5zM7.45 22.675c-1.218-.056-1.88-.259-2.321-.43-.584-.228-1-.498-1.438-.935a3.857 3.857 0 01-.935-1.437c-.172-.44-.375-1.103-.43-2.321-.06-1.318-.073-1.714-.073-5.052 0-3.338.013-3.733.073-5.051.055-1.22.26-1.88.43-2.322.227-.583.498-1 .935-1.438a3.853 3.853 0 011.438-.934c.44-.172 1.103-.375 2.321-.43 1.318-.061 1.714-.073 5.05-.073 3.337 0 3.733.013 5.052.073 1.219.055 1.88.26 2.322.43.583.226 1 .497 1.438.934.437.438.707.855.934 1.438.172.44.375 1.103.43 2.322.061 1.318.073 1.713.073 5.051s-.012 3.733-.072 5.052c-.056 1.218-.26 1.88-.43 2.32-.228.584-.498 1-.936 1.438a3.886 3.886 0 01-1.437.935c-.44.171-1.103.374-2.322.43-1.317.06-1.713.072-5.051.072-3.339 0-3.733-.012-5.05-.072zM7.347.075c-1.331.061-2.24.272-3.034.581a6.131 6.131 0 00-2.215 1.442A6.107 6.107 0 00.656 4.312c-.309.795-.52 1.704-.58 3.034C.014 8.68 0 9.107 0 12.5c0 3.395.014 3.82.076 5.154.06 1.33.271 2.239.58 3.034a6.11 6.11 0 001.442 2.214 6.146 6.146 0 002.215 1.442c.795.309 1.703.52 3.034.58 1.333.06 1.759.076 5.154.076 3.394 0 3.82-.014 5.153-.076 1.331-.06 2.24-.271 3.034-.58a6.147 6.147 0 002.215-1.442 6.124 6.124 0 001.442-2.214c.309-.795.52-1.704.58-3.034.06-1.334.075-1.76.075-5.154 0-3.395-.014-3.82-.075-5.154-.06-1.33-.271-2.24-.58-3.034a6.147 6.147 0 00-1.442-2.214A6.116 6.116 0 0020.689.656c-.795-.309-1.704-.52-3.034-.58C16.322.016 15.896 0 12.501 0c-3.394 0-3.82.014-5.154.076z" fill="url(#cpaint0_linear_1_937)"/><defs><linearGradient id="cpaint0_linear_1_937" x1="24.52" y1="25" x2="-.48" y2="0" gradientUnits="userSpaceOnUse"><stop stop-color="#fff"/><stop offset=".21" stop-color="#fff"/><stop offset=".38" stop-color="#fff"/><stop offset=".52" stop-color="#fff"/><stop offset=".74" stop-color="#fff"/><stop offset="1" stop-color="#fff"/></linearGradient></defs></svg><svg fill="none" viewBox="0 0 25 25" id="knet" xmlns="http://www.w3.org/2000/svg"><path d="M9.566 8.52l5.4-6.643C15.986.626 17.304 0 18.92 0c1.318 0 2.458.397 3.423 1.191.963.794 1.445 1.745 1.445 2.852 0 .819-.255 1.54-.765 2.166l-4.869 6.011 5.953 6.408c.596.638.893 1.384.893 2.239 0 1.131-.467 2.102-1.403 2.915-.935.812-2.07 1.218-3.401 1.218-1.46 0-2.573-.403-3.338-1.21l-7.292-7.725v4.26c0 1.216-.248 2.16-.744 2.834C7.915 24.386 6.597 25 4.868 25c-1.573 0-2.792-.451-3.656-1.354C.404 22.816 0 21.715 0 20.343V4.55c0-1.3.41-2.37 1.233-3.213C2.097.446 3.288 0 4.804 0c1.446 0 2.65.445 3.614 1.336.539.493.879.992 1.02 1.498.085.313.128.896.128 1.75V8.52z" fill="#fff"/></svg><svg fill="none" viewBox="0 0 25 25" id="vimeo" xmlns="http://www.w3.org/2000/svg"><path d="M24.988 5.784c-.111 2.813-1.811 6.666-5.099 11.555C16.49 22.447 13.615 25 11.262 25c-1.457 0-2.69-1.555-3.697-4.666L5.547 11.78c-.749-3.109-1.551-4.665-2.409-4.665-.187 0-.841.455-1.962 1.36L0 6.726a338.63 338.63 0 003.649-3.762C5.294 1.319 6.529.454 7.353.367c1.945-.216 3.143 1.321 3.592 4.613.486 3.55.822 5.76 1.011 6.624.56 2.946 1.178 4.417 1.852 4.417.523 0 1.31-.955 2.357-2.866 1.047-1.911 1.608-3.365 1.684-4.364.149-1.65-.412-2.477-1.684-2.477-.598 0-1.215.16-1.85.474 1.229-4.652 3.576-6.912 7.041-6.783 2.569.087 3.78 2.013 3.632 5.779z" fill="#fff"/></svg><svg fill="none" viewBox="0 0 37 27" id="youtube" xmlns="http://www.w3.org/2000/svg"><path fill-rule="evenodd" clip-rule="evenodd" d="M32.956.801c1.595.447 2.85 1.75 3.273 3.401C37 7.2 37 13.456 37 13.456s0 6.258-.771 9.255c-.43 1.657-1.684 2.96-3.273 3.4-2.884.802-14.456.802-14.456.802s-11.566 0-14.456-.801c-1.595-.447-2.85-1.75-3.273-3.401C0 19.714 0 13.456 0 13.456S0 7.2.771 4.202c.43-1.658 1.683-2.96 3.273-3.4C6.934 0 18.5 0 18.5 0s11.572 0 14.456.801zm-8.54 12.655l-9.613 5.768V7.69l9.613 5.767z" fill="#F4F4F4"/></svg></svg>