<svg width="7" height="12" viewBox="0 0 7 12" fill="none" xmlns="http://www.w3.org/2000/svg">
<path d="M5.176 0.551999C5.216 0.543999 5.296 0.539999 5.416 0.539999C5.6 0.547999 5.768 0.592 5.92 0.672C6.232 0.832 6.388 1.088 6.388 1.44C6.388 1.584 6.356 1.72 6.292 1.848C6.26 1.928 6.212 1.996 6.148 2.052C6.068 2.132 6 2.184 5.944 2.208C5.72 2.312 5.508 2.316 5.308 2.22C5.108 2.116 5.036 1.932 5.092 1.668C5.1 1.636 5.108 1.604 5.116 1.572C5.172 1.388 5.272 1.252 5.416 1.164C5.456 1.14 5.428 1.12 5.332 1.104C5.276 1.104 5.236 1.112 5.212 1.128C5.148 1.176 5.104 1.232 5.08 1.296C5.048 1.36 4.964 1.728 4.828 2.4C4.644 3.28 4.552 3.752 4.552 3.816C4.552 3.824 4.768 3.828 5.2 3.828H5.848L5.896 3.864C5.928 3.904 5.924 4.012 5.884 4.188C5.844 4.364 5.808 4.46 5.776 4.476C5.752 4.492 5.52 4.5 5.08 4.5C4.64 4.5 4.42 4.508 4.42 4.524L4.108 6.108L3.748 7.968C3.532 9.008 3.324 9.752 3.124 10.2C2.868 10.792 2.54 11.18 2.14 11.364C2.028 11.42 1.908 11.452 1.78 11.46C1.428 11.476 1.148 11.368 0.94 11.136C0.924 11.128 0.912 11.116 0.904 11.1C0.792 10.94 0.736 10.764 0.736 10.572C0.736 10.42 0.768 10.28 0.832 10.152C0.864 10.072 0.912 10.004 0.976 9.948C1.056 9.868 1.124 9.816 1.18 9.792C1.404 9.688 1.616 9.684 1.816 9.78C2.016 9.884 2.088 10.068 2.032 10.332C2.024 10.364 2.016 10.396 2.008 10.428C1.952 10.612 1.852 10.748 1.708 10.836C1.66 10.868 1.688 10.884 1.792 10.884C1.856 10.884 1.904 10.872 1.936 10.848C2.04 10.768 2.12 10.56 2.176 10.224C2.256 9.72 2.376 9.152 2.536 8.52L2.776 7.44C3.152 5.432 3.34 4.456 3.34 4.512C3.34 4.504 3.156 4.5 2.788 4.5C2.396 4.5 2.184 4.472 2.152 4.416C2.136 4.392 2.148 4.3 2.188 4.14C2.228 3.98 2.26 3.888 2.284 3.864L2.32 3.828H2.896H3.472V3.804L3.592 3.216C3.752 2.384 3.908 1.804 4.06 1.476C4.308 0.971999 4.68 0.663999 5.176 0.551999Z" fill="white"/>
<path d="M1 10.5H4.684V11.1H1V10.5Z" fill="white"/>
</svg>
