<svg width="25" height="25" viewBox="0 0 25 25" fill="none" xmlns="http://www.w3.org/2000/svg">
<path d="M9.56609 8.51981L14.9657 1.87722C15.9866 0.62574 17.3043 0 18.9202 0C20.2382 0 21.3785 0.396978 22.3429 1.19121C23.3064 1.98544 23.7881 2.9361 23.7881 4.0432C23.7881 4.86154 23.5335 5.58371 23.0231 6.20945L18.1545 12.2203L24.1072 18.6284C24.7025 19.2662 25 20.0124 25 20.8667C25 21.9981 24.5328 22.9694 23.5971 23.7817C22.6617 24.5943 21.5273 25 20.1957 25C18.7356 25 17.6234 24.5973 16.8578 23.7907L9.56609 16.0651V20.3253C9.56609 21.5409 9.31829 22.4853 8.82205 23.1592C7.91506 24.3863 6.59702 25 4.86823 25C3.29496 25 2.07564 24.5488 1.21157 23.6463C0.403642 22.8159 0 21.7146 0 20.3434V4.54867C0 3.24897 0.410418 2.17831 1.23287 1.33586C2.09726 0.44547 3.28754 0 4.80402 0C6.24984 0 7.45431 0.44547 8.41808 1.33586C8.9566 1.829 9.29668 2.32844 9.43832 2.83391C9.5235 3.14705 9.56609 3.73033 9.56609 4.58483V8.51981Z" fill="white"/>
</svg>
