<svg width="25" height="25" viewBox="0 0 25 25" fill="none" xmlns="http://www.w3.org/2000/svg">
<path d="M24.9879 5.78372C24.8767 8.5971 23.1769 12.4495 19.8894 17.339C16.4904 22.4465 13.6146 25 11.2621 25C9.80531 25 8.57156 23.4452 7.56455 20.3344C6.89154 17.4829 6.21929 14.6318 5.54654 11.7803C4.79828 8.67124 3.99603 7.11469 3.13827 7.11469C2.95127 7.11469 2.29676 7.5696 1.17626 8.47595L0 6.72411C1.23376 5.47074 2.45102 4.21765 3.64852 2.96284C5.29403 1.31888 6.52929 0.454358 7.35255 0.366954C9.29831 0.150895 10.4958 1.6884 10.9453 4.97977C11.4311 8.53076 11.7671 10.7395 11.9561 11.604C12.5168 14.5501 13.1338 16.0213 13.8081 16.0213C14.3313 16.0213 15.1173 15.0659 16.1654 13.1551C17.2124 11.2438 17.7731 9.78961 17.8489 8.79066C17.9979 7.14123 17.4369 6.31449 16.1654 6.31449C15.5669 6.31449 14.9498 6.47372 14.3151 6.78844C15.5436 2.13581 17.8911 -0.123722 21.3561 0.00522071C23.9249 0.0923367 25.1359 2.01841 24.9879 5.78372Z" fill="white"/>
</svg>
