<svg width="37" height="27" viewBox="0 0 37 27" fill="none" xmlns="http://www.w3.org/2000/svg">
<path fill-rule="evenodd" clip-rule="evenodd" d="M32.9563 0.80127C34.5514 1.24778 35.8051 2.55061 36.2289 4.20208C37 7.19919 37 13.4564 37 13.4564C37 13.4564 37 19.7137 36.2289 22.7108C35.7992 24.3684 34.5455 25.6712 32.9563 26.1116C30.0721 26.9129 18.5 26.9129 18.5 26.9129C18.5 26.9129 6.93382 26.9129 4.04375 26.1116C2.44862 25.6651 1.19488 24.3623 0.771079 22.7108C0 19.7137 0 13.4564 0 13.4564C0 13.4564 0 7.19919 0.771079 4.20208C1.20076 2.54449 2.4545 1.24166 4.04375 0.80127C6.93382 0 18.5 0 18.5 0C18.5 0 30.0721 0 32.9563 0.80127ZM24.4155 13.4564L14.8035 19.2244V7.68852L24.4155 13.4564Z" fill="#F4F4F4"/>
</svg>
